HIERARCHY
ROOT Hips
{
  OFFSET -11.7163 39.8224 26.7717
  CHANNELS 6 Xposition Yposition Zposition Zrotation Xrotation Yrotation
  JOINT LeftHip
  {
    OFFSET 3.43 -1.72424e-013 8.96607e-013
    CHANNELS 6 Xposition Yposition Zposition Zrotation Xrotation Yrotation
    JOINT LeftKnee
    {
      OFFSET -5.19752e-012 -18.47 -1.59872e-014
      CHANNELS 6 Xposition Yposition Zposition Zrotation Xrotation Yrotation
      JOINT LeftAnkle
      {
        OFFSET 4.92564e-012 -17.95 2.56411e-014
        CHANNELS 6 Xposition Yposition Zposition Zrotation Xrotation Yrotation
        End Site
        {
          OFFSET 0 -3.12 0
        }
      }
    }
  }
  JOINT RightHip
  {
    OFFSET -3.43 -2.88829e-013 7.17326e-013
    CHANNELS 6 Xposition Yposition Zposition Zrotation Xrotation Yrotation
    JOINT RightKnee
    {
      OFFSET 5.32907e-015 -18.47 1.12544e-012
      CHANNELS 6 Xposition Yposition Zposition Zrotation Xrotation Yrotation
      JOINT RightAnkle
      {
        OFFSET -3.09153e-012 -17.95 2.0054e-013
        CHANNELS 6 Xposition Yposition Zposition Zrotation Xrotation Yrotation
        End Site
        {
          OFFSET 0 -3.12 0
        }
      }
    }
  }
  JOINT Chest
  {
    OFFSET 4.25995e-012 4.57 1.6724e-012
    CHANNELS 6 Xposition Yposition Zposition Zrotation Xrotation Yrotation
    JOINT Chest2
    {
      OFFSET -1.06581e-014 6.57 -1.77636e-014
      CHANNELS 6 Xposition Yposition Zposition Zrotation Xrotation Yrotation
      JOINT LeftCollar
      {
        OFFSET 1.06 4.19 1.76
        CHANNELS 6 Xposition Yposition Zposition Zrotation Xrotation Yrotation
        JOINT LeftShoulder
        {
          OFFSET 5.81 -7.25945e-013 -3.24679e-012
          CHANNELS 6 Xposition Yposition Zposition Zrotation Xrotation Yrotation
          JOINT LeftElbow
          {
            OFFSET -4.7907e-013 -12.08 -9.6309e-014
            CHANNELS 6 Xposition Yposition Zposition Zrotation Xrotation Yrotation
            JOINT LeftWrist
            {
              OFFSET 2.13163e-014 -9.82 1.42109e-014
              CHANNELS 6 Xposition Yposition Zposition Zrotation Xrotation Yrotation
              End Site
              {
                OFFSET 0 -7.37 0
              }
            }
          }
        }
      }
      JOINT RightCollar
      {
        OFFSET -1.06 4.19 1.76
        CHANNELS 6 Xposition Yposition Zposition Zrotation Xrotation Yrotation
        JOINT RightShoulder
        {
          OFFSET -6.06 -2.46303e-012 -9.49162e-013
          CHANNELS 6 Xposition Yposition Zposition Zrotation Xrotation Yrotation
          JOINT RightElbow
          {
            OFFSET 2.3781e-012 -11.08 6.54e-013
            CHANNELS 6 Xposition Yposition Zposition Zrotation Xrotation Yrotation
            JOINT RightWrist
            {
              OFFSET -1.42109e-014 -9.82 1.06581e-014
              CHANNELS 6 Xposition Yposition Zposition Zrotation Xrotation Yrotation
              End Site
              {
                OFFSET 0 -7.14001 0
              }
            }
          }
        }
      }
      JOINT Neck
      {
        OFFSET -1.77636e-015 4.05 -7.10543e-015
        CHANNELS 6 Xposition Yposition Zposition Zrotation Xrotation Yrotation
        JOINT Head
        {
          OFFSET 1.06581e-014 5.19 3.55271e-015
          CHANNELS 6 Xposition Yposition Zposition Zrotation Xrotation Yrotation
          End Site
          {
            OFFSET 0 4.14001 0
          }
        }
      }
    }
  }
}
MOTION
Frames:	4
Frame Time:	0.0333333
-59.3551 38.5787 24.4655 2.58549 1.81425 94.9138 3.43 -1.74916e-013 -2.39239e-013 5.08072 -17.8375 8.82036 -1.0428e-011 -18.47 -1.59872e-014 -3.07959 19.9762 24.2815 -5.24501e-012 -17.95 2.56409e-012 -0.330946 1.47363 0.00285432 -3.43 -4.35659e-014 -2.96263e-013 -2.55209 18.2738 -7.18137 5.32907e-015 -18.47 -8.95372e-014 -1.1813 4.85112 -11.9004 -3.8748e-012 -17.95 -5.52464e-012 8.47933 -18.9346 1.41841 6.3516e-012 4.57 -1.81673e-013 -0.915585 1.28119 9.06489 -1.06581e-014 6.57 -1.77636e-014 -1.56547 0.949119 8.16241 1.06 4.19 1.76 -6.94211 0.711352 2.52185 5.81 1.50717e-013 -4.02731e-013 32.6396 32.2324 9.96324 2.07214e-012 -12.08 1.0845e-012 -1.22176 -51.3234 -32.1065 2.13163e-014 -9.82 1.42109e-014 1.92384 17.0042 -0.284802 -1.06 4.19 1.76 10.4711 0.895923 -0.676326 -6.06 -6.33567e-012 1.16928e-012 -41.4943 -3.13366 21.1262 3.53966e-012 -11.08 -6.51113e-014 15.6022 -44.7676 26.0333 -1.42109e-014 -9.82 1.06581e-014 -14.378 7.06649 0.892438 -1.77636e-015 4.05 -7.10543e-015 1.56575 16.2693 2.25169 1.06581e-014 5.19 3.55271e-015 -1.21453 -36.9419 2.05325 
-58.4078 38.5602 23.8046 1.90888 2.36883 95.3139 3.43 7.09433e-014 1.64116e-013 3.91791 -18.5788 8.69453 -1.04352e-011 -18.47 -1.59872e-014 -3.58021 23.089 24.8487 -5.30021e-012 -17.95 2.56613e-012 -0.387066 -1.74535 -0.00619879 -3.43 -1.66128e-014 1.40221e-013 -4.4478 19.1149 -8.28253 5.32907e-015 -18.47 -9.47079e-014 -0.812433 5.33233 -9.6031 -3.87248e-012 -17.95 -5.54621e-012 9.47882 -19.3725 1.62303 6.34677e-012 4.57 -2.2216e-013 -1.3787 0.412287 8.47583 -1.06581e-014 6.57 -1.77636e-014 -1.95429 0.209746 7.56335 1.06 4.19 1.76 -8.37087 0.716989 2.63808 5.81 1.6532e-013 -4.39549e-013 33.3482 34.4164 10.1152 2.08753e-012 -12.08 1.10476e-012 -1.07798 -51.1489 -29.8714 2.13163e-014 -9.82 1.42109e-014 3.48476 18.6664 -0.576666 -1.06 4.19 1.76 10.3179 0.898665 -0.59994 -6.06 -6.3435e-012 1.25535e-012 -40.1382 -1.3841 20.6917 3.54617e-012 -11.08 -7.45904e-014 14.9761 -43.9666 27.1876 -1.42109e-014 -9.82 1.06581e-014 -13.0423 6.97485 0.798121 -1.77636e-015 4.05 -7.10543e-015 1.12773 16.7395 3.00533 1.06581e-014 5.19 3.55271e-015 -0.23884 -37.4641 2.86673 
-57.4627 38.6347 23.162 1.86245 2.87231 96.8187 3.43 6.88893e-014 4.5492e-013 2.52609 -17.5681 8.20581 -1.04419e-011 -18.47 -1.59872e-014 -3.72836 23.9515 23.6295 -5.35459e-012 -17.95 2.56728e-012 -0.40696 -3.84987 -0.0136134 -3.43 -8.34402e-016 -1.32006e-013 -5.76479 20.9079 -9.65238 5.32907e-015 -18.47 -1.00133e-013 -0.290486 5.13642 -7.96448 -3.86996e-012 -17.95 -5.56734e-012 10.0795 -15.8256 1.40381 6.34149e-012 4.57 -2.53573e-013 -1.82369 0.376468 7.44189 -1.06581e-014 6.57 -1.77636e-014 -2.29154 0.225956 6.58054 1.06 4.19 1.76 -9.03625 0.718967 2.69238 5.81 1.80054e-013 -4.75814e-013 32.693 35.0654 10.1805 2.10219e-012 -12.08 1.12167e-012 -1.02408 -51.6807 -29.1668 2.13163e-014 -9.82 1.42109e-014 4.70928 20.2108 -0.840058 -1.06 4.19 1.76 10.5599 0.910519 -0.541635 -6.06 -6.35098e-012 1.34029e-012 -39.6698 0.666602 20.9586 3.55259e-012 -11.08 -8.32364e-014 15.2946 -44.1007 26.2179 -1.42109e-014 -9.82 1.06581e-014 -13.8646 7.21606 0.878856 -1.77636e-015 4.05 -7.10543e-015 0.974749 16.1762 3.55059 1.06581e-014 5.19 3.55271e-015 -0.109065 -37.6281 3.47881 
-56.5319 38.7958 22.5385 2.384 2.6412 97.9689 3.43 -1.36002e-014 6.92381e-013 1.70597 -15.5502 7.7968 -1.0448e-011 -18.47 -1.59872e-014 -3.44319 23.8981 22.9093 -5.40816e-012 -17.95 2.56753e-012 -0.432226 -5.52457 -0.0208145 -3.43 1.68575e-015 -5.45977e-014 -7.1115 18.9463 -10.6423 5.32907e-015 -18.47 -1.0581e-013 0.196037 12.5508 -5.62663 -3.86725e-012 -17.95 -5.58806e-012 10.9568 -12.5453 1.21112 6.33575e-012 4.57 -2.7431e-013 -1.61226 0.652591 6.99353 -1.06581e-014 6.57 -1.77636e-014 -2.05902 0.482799 6.19913 1.06 4.19 1.76 -8.64338 0.740295 2.35415 5.81 1.94768e-013 -5.1153e-013 30.4242 34.3048 10.4234 2.1161e-012 -12.08 1.13536e-012 -0.844989 -52.14 -29.65 2.13163e-014 -9.82 1.42109e-014 3.2553 20.6196 -0.591856 -1.06 4.19 1.76 10.6123 0.916706 -0.490766 -6.06 -6.3581e-012 1.4241e-012 -38.9904 4.00307 21.2151 3.55894e-012 -11.08 -1.16616e-013 15.2802 -44.5068 24.9395 -1.42109e-014 -9.82 1.06581e-014 -14.9645 7.64549 1.00617 -1.77636e-015 4.05 -7.10543e-015 1.01251 15.8943 3.7538 1.06581e-014 5.19 3.55271e-015 -0.369365 -37.7623 3.70255 
